<svg id="Layer_1" data-name="Layer 1" xmlns="http://www.w3.org/2000/svg" viewBox="0 0 408.794 125.98"><title>bottom-art-deco-divider</title><path d="M1140.721,533.764v0a62.061,62.061,0,0,0-5.022-17.93c.766-.139,1.532-.277,2.283-.44a58.3,58.3,0,0,0,27-13.815l-1.179-1.455c-9.971,6.451-20.542,9.693-31.447,9.661a43.136,43.136,0,0,0-11.361-11.787c-10.816-7.61-23.908-9.479-32.986-9.711-1.947-.052-3.793-.027-5.5.04a97.688,97.688,0,0,1-9.9-9.712l-.351-.412-.534.091c-30.226,5.2-55.082,13.571-73.874,24.884-11.978,7.213-21.6,15.684-28.728,25.254a63.715,63.715,0,0,0-3.969-6.845A73.548,73.548,0,0,1,978.12,510.32a76.273,76.273,0,0,1,15.869-8.424l-.31-1.831h-13c.543-.368,1.077-.719,1.606-1.058a101.892,101.892,0,0,1,21.034-10.407l-.292-1.839H918.143l-.292,1.839a101.835,101.835,0,0,1,21.031,10.407c.531.339,1.065.69,1.611,1.058H927.485l-.306,1.831a76.584,76.584,0,0,1,15.871,8.424,73.333,73.333,0,0,1,12.968,11.261,63.885,63.885,0,0,0-3.971,6.845c-7.121-9.57-16.746-18.041-28.726-25.254-18.793-11.312-43.645-19.685-73.875-24.884l-.531-.094-.354.415a97.058,97.058,0,0,1-9.9,9.712c-1.7-.069-3.548-.092-5.5-.04-9.076.232-22.168,2.1-32.981,9.711a43.05,43.05,0,0,0-11.361,11.787c-10.905.032-21.474-3.212-31.447-9.664l-1.181,1.458a58.289,58.289,0,0,0,26.991,13.815c.766.163,1.529.3,2.29.438a62.168,62.168,0,0,0-5.023,17.933v0h0v.029l1.863.282a42.49,42.49,0,0,1,4.566-11.963,46.459,46.459,0,0,1,3.655-5.614,60.9,60.9,0,0,0,22.7-2.35c10.2-3,20.438-8.627,30.525-16.754,3.432.312,6.973.786,10.64,1.453a185.042,185.042,0,0,1,33.308,9.706c7.915,7.3,17.453,12.568,25.333,16.092a137.236,137.236,0,0,0,24.718,8.313l.66-1.742a363.787,363.787,0,0,0-49.686-24.283,52.078,52.078,0,0,1-9.346-11.393,138.015,138.015,0,0,1,25.551,7.063,116.822,116.822,0,0,1,23.86,12.278,82.168,82.168,0,0,1,20.6,19.672,62.684,62.684,0,0,0-3.843,21.866c0,14.708,4.745,30.684,14.206,47.756,0,0,.4-.2.823-.405l.825.405c9.459-17.072,14.206-33.048,14.206-47.756a62.481,62.481,0,0,0-3.848-21.863,82.287,82.287,0,0,1,20.6-19.675,116.926,116.926,0,0,1,23.863-12.278,138.139,138.139,0,0,1,25.551-7.062,52.2,52.2,0,0,1-9.341,11.393,364.121,364.121,0,0,0-49.692,24.283l.662,1.742a137.238,137.238,0,0,0,24.718-8.312c7.883-3.523,17.429-8.795,25.333-16.092a185.227,185.227,0,0,1,33.3-9.706c3.667-.667,7.213-1.142,10.645-1.453,10.089,8.13,20.332,13.752,30.529,16.754a60.825,60.825,0,0,0,22.7,2.35,49.038,49.038,0,0,1,3.657,5.614,42.369,42.369,0,0,1,4.559,11.963l1.868-.279a.2.2,0,0,1-.007-.032ZM931.18,529.291a139.263,139.263,0,0,1-17.4-6.391,99.321,99.321,0,0,1-20.6-12.164A361.689,361.689,0,0,1,931.18,529.291Zm76.213-6.391a139.186,139.186,0,0,1-17.409,6.391A362.637,362.637,0,0,1,1028,510.736,99.3,99.3,0,0,1,1007.393,522.9Zm145.356-15.014a58.917,58.917,0,0,1-15.259,5.681c-.879.19-1.764.351-2.651.507-.422-.83-.862-1.636-1.332-2.422A56.294,56.294,0,0,0,1152.749,507.887Zm-64.733-17.723c8.807.232,21.485,2.046,31.9,9.373a41.508,41.508,0,0,1,10.132,10.179c-.131,0-.257,0-.4-.006-.912-.049-1.831-.143-2.755-.234a48.389,48.389,0,0,0-12.724-8.679,62.263,62.263,0,0,0-22.691-5.5c-2.472-1.727-4.745-3.469-6.793-5.145C1085.757,490.135,1086.868,490.14,1088.016,490.164Zm35.546,18.874a71.946,71.946,0,0,1-23-8.109c-2.029-1.1-3.979-2.269-5.837-3.457a58.619,58.619,0,0,1,18.617,5.014A46.514,46.514,0,0,1,1123.562,509.038Zm-155.7,21.128q-.886,1.252-1.72,2.542a58.924,58.924,0,0,0-4.387-7.042c.683-.907,1.387-1.776,2.1-2.617A62.421,62.421,0,0,1,967.865,530.166Zm1.678,3.83c.034.094.069.19.106.281-.047.074-.1.139-.144.2-.507.728-.993,1.458-1.465,2.2-.292-.68-.6-1.337-.91-1.994q.794-1.274,1.648-2.522C969.039,532.766,969.3,533.376,969.543,534Zm-17.151-1.836c.565.832,1.119,1.673,1.648,2.522-.314.657-.615,1.315-.9,1.994-.479-.738-.966-1.468-1.476-2.2-.049-.064-.1-.129-.143-.2.039-.091.073-.187.108-.281C951.872,533.376,952.127,532.766,952.392,532.16Zm14.4,6.437a.412.412,0,0,1,.024.059,70.306,70.306,0,0,0-4.445,8.77c-.244-.662-.5-1.332-.766-2a71.5,71.5,0,0,1,3.175-6.709c.381-.7.771-1.4,1.174-2.088C966.244,537.273,966.525,537.93,966.79,538.6Zm-5.222,16.613c.208-.694.433-1.389.665-2.081a76.889,76.889,0,0,1,2.859,20.947,82.9,82.9,0,0,1-.5,9.022c-.018.15-.04.278-.058.427q.164-2.769.163-5.466A81.094,81.094,0,0,0,961.568,555.21Zm-.985-3.116c-.228-.672-.467-1.329-.719-1.989.234-.685.472-1.371.719-2.054.252.683.489,1.369.722,2.054C961.053,550.765,960.815,551.422,960.583,552.094Zm-3.951,31.432c-.019-.148-.042-.276-.059-.427a84.176,84.176,0,0,1-.5-9.022,76.885,76.885,0,0,1,2.858-20.947c.229.692.457,1.387.665,2.081a81.126,81.126,0,0,0-3.136,22.85C956.464,579.858,956.525,581.68,956.632,583.525Zm6.474-45.675c-.929,1.72-1.762,3.444-2.522,5.157-.756-1.713-1.592-3.437-2.519-5.157-.6-1.106-1.221-2.194-1.878-3.274a56.357,56.357,0,0,1,4.4-7.309,55.165,55.165,0,0,1,4.4,7.309C964.329,535.656,963.7,536.744,963.105,537.851Zm-6.711.867a72.7,72.7,0,0,1,3.173,6.709c-.267.667-.521,1.337-.769,2a70.289,70.289,0,0,0-4.443-8.77.616.616,0,0,1,.022-.059c.272-.667.551-1.324.838-1.967C955.618,537.322,956.012,538.022,956.394,538.718Zm1.471,11.429a78.262,78.262,0,0,0-3.673,23.93c0,2.992.163,5.782.413,8.308-5.019-15.162-5.395-29.039-1.1-41.444A69.551,69.551,0,0,1,957.865,550.147Zm2.651,48.791.066-.037.069.037c-.022.119-.04.235-.069.349C960.563,599.173,960.538,599.057,960.517,598.938Zm.066-2.138q-.371-.756-.739-1.512a104.664,104.664,0,0,1-1.5-17.209,80.917,80.917,0,0,1,2.234-19.239,80.767,80.767,0,0,1,2.228,19.239,104.629,104.629,0,0,1-1.487,17.209Q960.961,596.044,960.583,596.8Zm2.721-46.653a69.154,69.154,0,0,1,4.356-9.207c4.3,12.405,3.924,26.282-1.1,41.444a82.94,82.94,0,0,0,.413-8.308A78.14,78.14,0,0,0,963.3,550.147ZM960.583,524.1c-.712-.927-1.439-1.816-2.187-2.679.709-1.02,1.442-2.017,2.187-2.982.746.966,1.48,1.962,2.189,2.982C962.031,522.283,961.3,523.173,960.583,524.1ZM989,501.949a84.113,84.113,0,0,0-11.894,6.78,75.219,75.219,0,0,0-13.052,11.24c-.731-1.045-1.49-2.056-2.266-3.044a85.333,85.333,0,0,1,16.163-14.977Zm-28.422,13.48a86.179,86.179,0,0,0-14.2-13.48h28.4A86.261,86.261,0,0,0,960.583,515.429Zm-20.73-18.039a110.35,110.35,0,0,0-16.631-8.74h74.723a110.82,110.82,0,0,0-16.63,8.74c-1.275.82-2.6,1.713-3.962,2.676H943.816C942.458,499.1,941.133,498.21,939.853,497.39Zm4.21,11.34a84.283,84.283,0,0,0-11.9-6.78h11.051a85.441,85.441,0,0,1,16.161,14.977c-.773.988-1.535,2-2.262,3.044A75.649,75.649,0,0,0,944.063,508.73Zm13.245,14.319c.712.841,1.411,1.71,2.1,2.617a58.657,58.657,0,0,0-4.384,7.042c-.554-.857-1.124-1.707-1.723-2.542A62.866,62.866,0,0,1,957.309,523.049ZM801.254,499.537c10.413-7.327,23.095-9.141,31.9-9.373q1.715-.041,3.326-.01c-2.057,1.676-4.324,3.418-6.793,5.145a62.3,62.3,0,0,0-22.694,5.5,48.272,48.272,0,0,0-12.721,8.681c-.925.092-1.847.185-2.766.234-.131.006-.262.006-.388.006A41.52,41.52,0,0,1,801.254,499.537Zm25.192-2.065c-1.857,1.188-3.8,2.357-5.839,3.457a71.914,71.914,0,0,1-23,8.109,46.353,46.353,0,0,1,10.234-6.553A58.486,58.486,0,0,1,826.446,497.472Zm-42.771,16.1a58.936,58.936,0,0,1-15.251-5.681,56.215,56.215,0,0,0,19.232,3.764c-.462.788-.907,1.594-1.327,2.424C785.444,513.919,784.555,513.758,783.675,513.567Zm1.8,7.2a49.791,49.791,0,0,1,1.93-4.631c.313.047.63.087.948.129A49.534,49.534,0,0,0,785.475,520.766Zm4.187-6.231c-.452-.047-.9-.124-1.353-.178.491-.93,1-1.839,1.544-2.714.6-.02,1.191-.02,1.789-.054.193-.006.391-.027.589-.035C791.3,512.547,790.446,513.548,789.662,514.534Zm23.095-2.214a59.309,59.309,0,0,1-20.818,2.4c.951-1.136,2.012-2.28,3.168-3.417a72.212,72.212,0,0,0,26.457-8.74,98.431,98.431,0,0,0,8.775-5.419,90.139,90.139,0,0,1,10.64.04C831.623,504.462,822.164,509.542,812.757,512.32Zm30.4-16.868a95.137,95.137,0,0,0-10.032-.3c2.259-1.668,4.334-3.331,6.187-4.91a81.013,81.013,0,0,1,8.866.885Q845.673,493.391,843.158,495.452Zm86.67,17.852a118.289,118.289,0,0,0-24.268-12.48,134.371,134.371,0,0,0-27.855-7.457l-1.81-.223.856,1.608a50.232,50.232,0,0,0,7.685,10.569A181.01,181.01,0,0,0,854.7,496.98c-3.042-.549-6-.969-8.886-1.28q2.536-2.134,5.061-4.473l1.327-1.235-1.771-.378a69.584,69.584,0,0,0-9.071-1.159,100.253,100.253,0,0,0,8.293-8.214c29.746,5.162,54.2,13.418,72.678,24.538,12.108,7.292,21.763,15.869,28.8,25.585-.321.694-.622,1.4-.911,2.113A84.8,84.8,0,0,0,929.828,513.3Zm17.619,43.109a60.881,60.881,0,0,1,3.273-19.961c.534.786,1.046,1.579,1.54,2.39a56.461,56.461,0,0,0-3.61,20.151c0,10.074,2.438,20.849,7.3,32.252.151.727.3,1.421.45,2.1C950.439,580.273,947.447,567.934,947.447,556.413Zm17.321,36.933c.153-.68.307-1.374.455-2.1,4.855-11.4,7.289-22.178,7.289-32.252a56.457,56.457,0,0,0-3.6-20.151c.491-.811,1.006-1.6,1.537-2.39a60.839,60.839,0,0,1,3.286,19.961C973.731,567.934,970.731,580.273,964.769,593.346Zm101.7-96.366a180.826,180.826,0,0,0-29.736,8.343,50.052,50.052,0,0,0,7.683-10.569l.857-1.608-1.8.223a134.32,134.32,0,0,0-27.861,7.457A118.594,118.594,0,0,0,991.34,513.3a84.654,84.654,0,0,0-20.384,19.173c-.3-.715-.6-1.419-.919-2.113,7.043-9.716,16.694-18.293,28.8-25.583,18.481-11.122,42.935-19.378,72.682-24.54a101.249,101.249,0,0,0,8.293,8.214,69.484,69.484,0,0,0-9.069,1.159l-1.772.378,1.329,1.235q2.524,2.344,5.063,4.475C1072.473,496.011,1069.512,496.431,1066.47,496.98Zm6.517-5.852a80.658,80.658,0,0,1,8.871-.887c1.858,1.579,3.927,3.242,6.183,4.912a94.5,94.5,0,0,0-10.025.3Q1075.5,493.391,1072.986,491.128Zm35.428,21.192c-9.41-2.778-18.867-7.858-28.22-15.138a90.108,90.108,0,0,1,10.638-.04,97.824,97.824,0,0,0,8.779,5.419,72.076,72.076,0,0,0,26.448,8.74c1.164,1.137,2.222,2.281,3.175,3.417A59.294,59.294,0,0,1,1108.414,512.32Zm20.526-.767c.2.008.388.029.589.035.6.034,1.193.034,1.781.057.549.872,1.055,1.781,1.547,2.711-.447.054-.9.133-1.347.178C1130.728,513.548,1129.87,512.547,1128.94,511.554Zm3.877,4.71c.314-.042.636-.082.949-.129.7,1.483,1.355,3.03,1.928,4.631A49.081,49.081,0,0,0,1132.817,516.264Z" transform="translate(-756.187 -478.194)" style="fill:#bb9a4c"/></svg>