<svg xmlns="http://www.w3.org/2000/svg" width="80" height="60" viewBox="-22.312 -14.203 80 60"><path fill="#BCBCBC" d="M9.3 1.072l-.067-.066-.062.063C6.9-.54 3.73-.335 1.698 1.697S-.54 6.9 1.069 9.171c.186.264.393.519.629.755l7.536 7.536 7.513-7.513c.245-.244.457-.508.648-.781 1.589-2.269 1.376-5.423-.648-7.447C14.724-.303 11.568-.517 9.3 1.072zm6.639 6.64a3.764 3.764 0 0 1-.606.823l-.699.699-2.396 2.396-3.003 3.003-3.025-3.026-2.376-2.374-.722-.722a3.826 3.826 0 0 1-.591-.792c-.845-1.46-.657-3.359.591-4.607 1.248-1.247 3.146-1.435 4.606-.59.032.019.067.032.1.052.245.153.48.326.693.539.252.252.445.536.611.833.037.066.072.132.105.2.035-.07.069-.139.108-.207.164-.285.353-.56.597-.804a3.76 3.76 0 0 1 .718-.551c.034-.021.07-.036.104-.056 1.457-.825 3.338-.633 4.577.606 1.239 1.239 1.434 3.122.608 4.578z"/><path fill="#7A7A7A" d="M25.18 1.312L23.793.734v20.711a5.687 5.687 0 0 0-3.708-1.377 5.716 5.716 0 0 0-5.708 5.709 5.715 5.715 0 0 0 5.708 5.707c3.077 0 5.587-2.448 5.697-5.5h.011V3.838c2.471 1.323 7.375 4.5 7.375 8.86-.001.03-.104 3.062-3.22 6.29l1.438 1.389c3.703-3.836 3.778-7.5 3.78-7.663.002-7.147-9.58-11.231-9.986-11.402zm-5.095 28.172c-2.045 0-3.708-1.662-3.708-3.707s1.663-3.709 3.708-3.709 3.708 1.664 3.708 3.709-1.663 3.707-3.708 3.707z"/></svg>