<svg xmlns="http://www.w3.org/2000/svg" width="80" height="60" viewBox="-1.333 -14.896 80 60"><path fill="#7A7A7A" d="M38.396-7C25.898-7 15.73 3.168 15.73 15.666c0 12.499 10.168 22.667 22.666 22.667s22.666-10.168 22.666-22.667C61.062 3.168 50.895-7 38.396-7zm0 43.333C27 36.333 17.73 27.061 17.73 15.666S27.001-5 38.396-5c11.396 0 20.666 9.271 20.666 20.666s-9.27 20.667-20.666 20.667z"/><path fill="#BCBCBC" d="M38.396-1C29.207-1 21.73 6.477 21.73 15.666s7.477 16.667 16.666 16.667c9.188 0 16.666-7.478 16.666-16.667S47.586-1 38.396-1zm0 31.333c-8.087 0-14.666-6.58-14.666-14.667S30.31 1 38.396 1s14.666 6.579 14.666 14.666c0 8.086-6.579 14.667-14.666 14.667z"/><path fill="#7A7A7A" d="M73.469-6.422c-1.512 0-2.867.899-3.488 2.383-.078.249-1.911 6.161-2.29 11.425-.349 4.841-.446 8.838-.459 9.369-.063.588.19 1.604 1.532 2.234.15.071.298.133.439.189.526.216.526.216.526.697 0 .602-.002.836-.004.912l-.009 13.898a3.757 3.757 0 0 0 3.75 3.75 3.755 3.755 0 0 0 3.75-3.75V-2.672a3.75 3.75 0 0 0-3.747-3.75zm-3.856 23.601c-.267-.125-.356-.234-.385-.275l.001-.05c.001-.041.087-4.2.455-9.323.361-5.016 2.177-10.883 2.171-10.883a1.751 1.751 0 0 1 3.362.681V20H71.73v-.125c0-1.824-1.065-2.26-1.771-2.549a7.13 7.13 0 0 1-.346-.147zm3.856 19.259c-.965 0-1.75-.785-1.75-1.75V21h3.5v13.688c0 .964-.785 1.75-1.75 1.75zM13.082-5.497a1.312 1.312 0 0 0-2.624 0l-.008.403v7.886a1.312 1.312 0 0 1-2.624 0v-7.87l-.01-.278a1.312 1.312 0 0 0-2.625 0l.055.341v7.808a1.312 1.312 0 0 1-2.624 0v-7.934l.008-.294a1.312 1.312 0 0 0-2.626 0L0-5.344v8.219a6.54 6.54 0 0 0 4.031 6.041l-1.459 24.87a4.004 4.004 0 0 0 3.97 4.484 4.004 4.004 0 0 0 3.976-4.424L9.26 8.82a6.536 6.536 0 0 0 3.824-5.945v-8.344l-.002-.028zM8.526 34.022a2.001 2.001 0 0 1-1.984 2.248 2.001 2.001 0 0 1-1.979-2.305L6.006 9.39c.178.015.355.027.536.027.252 0 .499-.018.743-.045l1.241 24.65z"/></svg>