<svg xmlns="http://www.w3.org/2000/svg" width="80" height="60" viewBox="-14.333 -9.896 80 60"><path fill="#7A7A7A" d="M22.493 3.462L8.735.086a3.005 3.005 0 0 0-3.629 2.2l-2.431 9.965C1.531 17.11 4.27 21.454 9.383 23.104L6.288 35.715l-1.315-.322a.748.748 0 0 0-.907.55c-.002.007 0 .015-.001.022l-2.826-.693a.999.999 0 1 0-.477 1.941l11.613 2.851a1 1 0 1 0 .477-1.942l-2.827-.692c.003-.009.009-.015.011-.021a.748.748 0 0 0-.55-.906l-1.316-.327 3.097-12.621c5.072.74 9.986-2.487 11.231-7.564l2.194-8.899a3.004 3.004 0 0 0-2.199-3.63zm-1.936 12.051c-1.062 4.323-5.442 6.978-9.765 5.917-4.577-1.123-7.114-4.709-6.171-8.712L7.05 2.762a1 1 0 0 1 1.209-.732l13.758 3.375c.536.132.864.674.733 1.209l-2.193 8.899z"/><path fill="#BCBCBC" d="M18.13 13.563a5.791 5.791 0 0 1-5.767 5.817 5.791 5.791 0 0 1-5.818-5.767l11.585-.05z"/><g><path fill="#7A7A7A" d="M26.586 7.091l2.194 8.899c1.245 5.077 6.159 8.305 11.231 7.564l3.097 12.622-1.315.324a.75.75 0 0 0-.549.906c.002.008.008.014.01.02l-2.826.693a1 1 0 1 0 .477 1.942l11.613-2.851a.998.998 0 1 0-.477-1.941l-2.826.693c-.002-.008 0-.016-.002-.022a.751.751 0 0 0-.906-.55l-1.314.322-3.096-12.611c5.113-1.65 7.852-5.994 6.707-10.853l-2.432-9.965a3.004 3.004 0 0 0-3.629-2.2L28.786 3.462a3.005 3.005 0 0 0-2.2 3.629zm1.943-.477a1.001 1.001 0 0 1 .733-1.209L43.021 2.03a1 1 0 0 1 1.209.732l2.429 9.956c.943 4.003-1.594 7.589-6.171 8.712-4.321 1.061-8.702-1.594-9.765-5.917l-2.194-8.899z"/><path fill="#BCBCBC" d="M32.997 13.708a5.79 5.79 0 0 0 5.77 5.815 5.79 5.79 0 0 0 5.814-5.769l-11.584-.046z"/></g></svg>