<svg xmlns="http://www.w3.org/2000/svg" width="80" height="60" viewBox="-20.594 -4.281 80 60"><g fill="#7A7A7A"><path d="M22.335 19.868l4.478-2.985-2.213-6.766h-9.421l-2.197 6.76 4.419 3C9.854 21.079 4.062 27.615 4.062 35.494c0 8.729 7.103 15.833 15.833 15.833 8.729 0 15.834-7.104 15.834-15.833 0-7.899-5.821-14.447-13.394-15.626zm-1.523-7.751h2.338l1.056 3.229h-3.394v-3.229zm-4.18 0h2.181v3.229h-3.229l1.048-3.229zm5.877 5.231l-2.659 1.774-2.613-1.774h5.272zm-2.613 31.979c-7.628 0-13.833-6.205-13.833-13.833S12.268 21.66 19.896 21.66 33.73 27.866 33.73 35.494s-6.207 13.833-13.834 13.833z"/><path d="M19.896 24.91c-5.836 0-10.583 4.748-10.583 10.584s4.747 10.583 10.583 10.583S30.48 41.33 30.48 35.494 25.731 24.91 19.896 24.91zm0 19.167c-4.732 0-8.583-3.852-8.583-8.583 0-4.733 3.851-8.584 8.583-8.584s8.584 3.851 8.584 8.584c-.001 4.733-3.851 8.583-8.584 8.583z"/></g><path fill="#BCBCBC" d="M8.375 10.514L0 2.139l.707-.707 8.375 8.375zM14.123 7.32l-1.54-3.987.938-.349 1.54 3.987zM25.326 7.253l-.91-.416 2.001-4.004.91.417zM20.809 6.656l-.998-.053-.061-6.655.998.052zM30.332 10.514l-.707-.707L38 1.432l.707.707z"/></svg>